# Blender v2.80 (sub 75) OBJ File: ''
# www.blender.org
mtllib pipe.mtl
o straight_pipe.018_Cylinder.027
v 0.000000 0.698008 -0.100000
v 0.070711 0.698008 -0.070711
v 0.100000 0.698008 0.000000
v 0.070711 0.698008 0.070711
v -0.000000 0.698008 0.100000
v -0.070711 0.698008 0.070711
v -0.100000 0.698008 -0.000000
v -0.070711 0.698008 -0.070711
v 0.000000 0.634600 -0.100000
v 0.070711 0.634600 -0.070711
v 0.100000 0.634600 0.000000
v 0.070711 0.634600 0.070711
v -0.000000 0.634600 0.100000
v -0.070711 0.634600 0.070711
v -0.100000 0.634600 -0.000000
v -0.070711 0.634600 -0.070711
v 0.092023 0.707564 -0.092023
v 0.000000 0.707564 -0.130140
v 0.000000 0.625044 -0.130140
v 0.130140 0.707564 0.000000
v 0.092023 0.707564 0.092023
v -0.000000 0.707564 0.130140
v -0.092023 0.707564 0.092023
v -0.130140 0.707564 -0.000000
v -0.092023 0.707564 -0.092023
v 0.092023 0.625044 -0.092023
v 0.130140 0.625044 0.000000
v 0.092023 0.625044 0.092023
v -0.000000 0.625044 0.130140
v -0.092023 0.625044 0.092023
v -0.130140 0.625044 -0.000000
v -0.092023 0.625044 -0.092023
v 0.000000 -0.698008 -0.100000
v 0.070711 -0.698008 -0.070711
v 0.100000 -0.698008 0.000000
v 0.070711 -0.698008 0.070711
v -0.000000 -0.698008 0.100000
v -0.070711 -0.698008 0.070711
v -0.100000 -0.698008 -0.000000
v -0.070711 -0.698008 -0.070711
v 0.000000 -0.634600 -0.100000
v 0.070711 -0.634600 -0.070711
v 0.100000 -0.634600 0.000000
v 0.070711 -0.634600 0.070711
v -0.000000 -0.634600 0.100000
v -0.070711 -0.634600 0.070711
v -0.100000 -0.634600 -0.000000
v -0.070711 -0.634600 -0.070711
v 0.092023 -0.707564 -0.092023
v 0.000000 -0.707564 -0.130140
v 0.000000 -0.625044 -0.130140
v 0.130140 -0.707564 0.000000
v 0.092023 -0.707564 0.092023
v -0.000000 -0.707564 0.130140
v -0.092023 -0.707564 0.092023
v -0.130140 -0.707564 -0.000000
v -0.092023 -0.707564 -0.092023
v 0.092023 -0.625044 -0.092023
v 0.130140 -0.625044 0.000000
v 0.092023 -0.625044 0.092023
v -0.000000 -0.625044 0.130140
v -0.092023 -0.625044 0.092023
v -0.130140 -0.625044 -0.000000
v -0.092023 -0.625044 -0.092023
v 0.070711 0.000000 -0.070711
v 0.100000 0.000000 0.000000
v 0.070711 0.000000 0.070711
v -0.000000 0.000000 0.100000
v -0.070711 0.000000 0.070711
v -0.100000 0.000000 -0.000000
v -0.070711 0.000000 -0.070711
v 0.000000 0.000000 -0.100000
vt 0.364964 0.674989
vt 0.366111 0.737834
vt 0.343119 0.737293
vt 0.341747 0.674623
vt 0.363687 0.611706
vt 0.340285 0.610976
vt 0.270314 0.795293
vt 0.269479 0.734306
vt 0.291159 0.734725
vt 0.291938 0.796209
vt 0.364838 0.547892
vt 0.341380 0.544847
vt 0.262077 0.608729
vt 0.257771 0.541442
vt 0.283635 0.540036
vt 0.285682 0.608640
vt 0.380304 0.478439
vt 0.355920 0.462023
vt 0.266294 0.672565
vt 0.288672 0.672583
vt 0.259406 0.982735
vt 0.269709 0.918552
vt 0.290867 0.920999
vt 0.280016 0.995821
vt 0.474393 0.171728
vt 0.000130 0.171728
vt 0.000130 0.114528
vt 0.474393 0.114528
vt 0.474393 0.228927
vt 0.000130 0.228927
vt 0.474393 0.286126
vt 0.000130 0.286126
vt 0.474394 0.343325
vt 0.000130 0.343325
vt 0.474394 0.400524
vt 0.000130 0.400524
vt 0.474394 0.457723
vt 0.000130 0.457723
vt 0.474393 0.057329
vt 0.000130 0.057329
vt 0.000130 0.000130
vt 0.474394 0.000130
vt 0.273407 0.457983
vt 0.355006 0.999870
vt 0.345035 0.924530
vt 0.291759 0.857783
vt 0.343742 0.861058
vt 0.343611 0.799310
vt 0.269931 0.856522
vt 0.366389 0.800023
vt 0.245880 0.472940
vt 0.366551 0.861475
vt 0.368754 0.922984
vt 0.380304 0.986151
vt 0.218196 0.736441
vt 0.220736 0.797322
vt 0.221811 0.855522
vt 0.208153 0.974564
vt 0.218016 0.912698
vt 0.202646 0.550161
vt 0.190347 0.483130
vt 0.210806 0.612858
vt 0.214935 0.674332
vt 0.174747 0.782864
vt 0.151530 0.783231
vt 0.152902 0.720560
vt 0.175894 0.720019
vt 0.173470 0.846148
vt 0.150068 0.846877
vt 0.080097 0.662560
vt 0.101721 0.661645
vt 0.100942 0.723129
vt 0.079262 0.723547
vt 0.174621 0.909962
vt 0.151163 0.913006
vt 0.071860 0.849124
vt 0.095465 0.849214
vt 0.093418 0.917817
vt 0.067554 0.916411
vt 0.190087 0.979415
vt 0.165703 0.995830
vt 0.076077 0.785288
vt 0.098455 0.785270
vt 0.069189 0.475118
vt 0.089799 0.462032
vt 0.100650 0.536855
vt 0.079492 0.539302
vt 0.948656 0.114529
vt 0.948656 0.171728
vt 0.948656 0.228926
vt 0.948656 0.286125
vt 0.948656 0.343324
vt 0.948656 0.400523
vt 0.948656 0.457722
vt 0.948656 0.000131
vt 0.948656 0.057330
vt 0.083190 0.999870
vt 0.164789 0.457983
vt 0.154818 0.533324
vt 0.153525 0.596795
vt 0.101542 0.600071
vt 0.153394 0.658543
vt 0.079714 0.601331
vt 0.176172 0.657830
vt 0.055663 0.984913
vt 0.176334 0.596378
vt 0.178537 0.534869
vt 0.190087 0.471702
vt 0.027979 0.721412
vt 0.030519 0.660531
vt 0.031594 0.602332
vt 0.027799 0.545155
vt 0.017936 0.483290
vt 0.000130 0.974724
vt 0.012429 0.907692
vt 0.020589 0.844996
vt 0.024718 0.783521
vn 0.2999 -0.9459 0.1242
vn 0.1242 -0.9459 0.2999
vn 0.2999 0.9459 -0.1242
vn -0.1242 -0.9459 0.2999
vn -0.1242 0.9459 0.2999
vn -0.2999 -0.9459 0.1242
vn 0.1242 0.9459 0.2999
vn -0.2999 0.9459 -0.1242
vn -0.3827 0.0000 -0.9239
vn -0.9239 0.0000 -0.3827
vn -0.9239 0.0000 0.3827
vn -0.3827 0.0000 0.9239
vn 0.3827 0.0000 0.9239
vn 0.9239 0.0000 0.3827
vn 0.9239 0.0000 -0.3827
vn 0.3827 0.0000 -0.9239
vn -0.1242 0.9459 -0.2999
vn 0.2999 -0.9459 -0.1242
vn -0.2999 0.9459 0.1242
vn 0.2999 0.9459 0.1242
vn 0.1242 -0.9459 -0.2999
vn -0.1242 -0.9459 -0.2999
vn 0.1242 0.9459 -0.2999
vn -0.2999 -0.9459 -0.1242
usemtl Material.014
s off
f 16/1/1 15/2/1 31/3/1 32/4/1
f 9/5/2 16/1/2 32/4/2 19/6/2
f 6/7/3 7/8/3 24/9/3 23/10/3
f 10/11/4 9/5/4 19/6/4 26/12/4
f 1/13/5 2/14/5 17/15/5 18/16/5
f 11/17/6 10/11/6 26/12/6 27/18/6
f 8/19/7 1/13/7 18/16/7 25/20/7
f 3/21/8 4/22/8 21/23/8 20/24/8
f 71/25/9 16/26/9 9/27/9 72/28/9
f 70/29/10 15/30/10 16/26/10 71/25/10
f 69/31/11 14/32/11 15/30/11 70/29/11
f 68/33/12 13/34/12 14/32/12 69/31/12
f 67/35/13 12/36/13 13/34/13 68/33/13
f 66/37/14 11/38/14 12/36/14 67/35/14
f 65/39/15 10/40/15 11/41/15 66/42/15
f 72/28/16 9/27/16 10/40/16 65/39/16
f 19/6/16 18/16/16 17/15/16 26/12/16
f 26/12/15 17/15/15 20/43/15 27/18/15
f 27/44/14 20/24/14 21/23/14 28/45/14
f 28/45/13 21/23/13 22/46/13 29/47/13
f 29/47/12 22/46/12 23/10/12 30/48/12
f 30/48/11 23/10/11 24/9/11 31/3/11
f 31/3/10 24/9/10 25/20/10 32/4/10
f 32/4/9 25/20/9 18/16/9 19/6/9
f 4/22/17 5/49/17 22/46/17 21/23/17
f 15/2/18 14/50/18 30/48/18 31/3/18
f 2/14/19 3/51/19 20/43/19 17/15/19
f 7/8/20 8/19/20 25/20/20 24/9/20
f 14/50/21 13/52/21 29/47/21 30/48/21
f 13/52/22 12/53/22 28/45/22 29/47/22
f 5/49/23 6/7/23 23/10/23 22/46/23
f 12/53/24 11/54/24 27/44/24 28/45/24
f 15/55/15 7/8/15 6/7/15 14/56/15
f 14/56/16 6/7/16 5/49/16 13/57/16
f 4/22/10 3/21/10 11/58/10 12/59/10
f 2/14/11 10/60/11 11/61/11 3/51/11
f 10/60/12 2/14/12 1/13/12 9/62/12
f 16/63/13 9/62/13 1/13/13 8/19/13
f 15/55/14 16/63/14 8/19/14 7/8/14
f 48/64/20 64/65/20 63/66/20 47/67/20
f 41/68/7 51/69/7 64/65/7 48/64/7
f 38/70/18 55/71/18 56/72/18 39/73/18
f 42/74/5 58/75/5 51/69/5 41/68/5
f 33/76/4 50/77/4 49/78/4 34/79/4
f 43/80/19 59/81/19 58/75/19 42/74/19
f 40/82/2 57/83/2 50/77/2 33/76/2
f 35/84/24 52/85/24 53/86/24 36/87/24
f 71/25/9 72/28/9 41/88/9 48/89/9
f 70/29/10 71/25/10 48/89/10 47/90/10
f 69/31/11 70/29/11 47/90/11 46/91/11
f 68/33/12 69/31/12 46/91/12 45/92/12
f 67/35/13 68/33/13 45/92/13 44/93/13
f 66/37/14 67/35/14 44/93/14 43/94/14
f 65/39/15 66/42/15 43/95/15 42/96/15
f 72/28/16 65/39/16 42/96/16 41/88/16
f 51/69/16 58/75/16 49/78/16 50/77/16
f 58/75/15 59/81/15 52/97/15 49/78/15
f 59/98/14 60/99/14 53/86/14 52/85/14
f 60/99/13 61/100/13 54/101/13 53/86/13
f 61/100/12 62/102/12 55/71/12 54/101/12
f 62/102/11 63/66/11 56/72/11 55/71/11
f 63/66/10 64/65/10 57/83/10 56/72/10
f 64/65/9 51/69/9 50/77/9 57/83/9
f 36/87/22 53/86/22 54/101/22 37/103/22
f 47/67/3 63/66/3 62/102/3 46/104/3
f 34/79/6 49/78/6 52/97/6 35/105/6
f 39/73/1 56/72/1 57/83/1 40/82/1
f 46/104/23 62/102/23 61/100/23 45/106/23
f 45/106/17 61/100/17 60/99/17 44/107/17
f 37/103/21 54/101/21 55/71/21 38/70/21
f 44/107/8 60/99/8 59/98/8 43/108/8
f 47/109/15 46/110/15 38/70/15 39/73/15
f 46/110/16 45/111/16 37/103/16 38/70/16
f 36/87/10 44/112/10 43/113/10 35/84/10
f 34/79/11 35/105/11 43/114/11 42/115/11
f 42/115/12 41/116/12 33/76/12 34/79/12
f 48/117/13 40/82/13 33/76/13 41/116/13
f 47/109/14 39/73/14 40/82/14 48/117/14
f 5/49/9 4/22/9 12/59/9 13/57/9
f 37/103/9 45/111/9 44/112/9 36/87/9
