# Blender v2.80 (sub 75) OBJ File: ''
# www.blender.org
mtllib radiator.mtl
o radiator002_Cube.001_Cube.000
v 0.110253 0.375000 -0.057141
v 0.158664 0.375000 -0.206149
v 0.158664 0.501685 -0.206149
v 0.110253 0.550987 -0.180261
v 0.158664 0.501685 -0.437182
v 0.158664 0.375000 -0.437182
v 0.110253 0.375000 -0.480261
v 0.110253 0.550987 -0.480261
v -0.110253 0.375000 -0.057141
v -0.110253 0.550987 -0.180261
v -0.158664 0.501685 -0.206149
v -0.158664 0.375000 -0.206149
v -0.158664 0.501685 -0.437182
v -0.110253 0.550987 -0.480261
v -0.110253 0.375000 -0.480261
v -0.158664 0.375000 -0.437182
v -0.375000 0.375000 -0.500000
v 0.375000 0.375000 -0.500000
v 0.286222 -0.286222 0.557059
v 0.286222 0.286222 0.557059
v -0.286222 0.286222 0.557059
v -0.286222 -0.286222 0.557059
v -0.375000 0.375000 0.500000
v -0.375000 -0.375000 0.500000
v -0.110253 0.375000 0.500000
v 0.375000 -0.375000 0.500000
v 0.375000 -0.311880 -0.441603
v 0.375000 -0.375000 -0.500000
v 0.375000 0.311880 -0.441603
v 0.375000 -0.311880 0.441603
v 0.375000 0.375000 0.500000
v 0.375000 0.375000 -0.057141
v -0.375000 0.375000 -0.057141
v 0.110253 0.375000 0.500000
v 0.375000 0.311880 0.441603
v -0.375000 0.311880 0.441603
v -0.375000 0.311880 -0.441603
v -0.356250 0.311880 -0.441603
v -0.356250 0.311880 0.441603
v -0.375000 -0.291791 -0.441603
v -0.375000 -0.375000 -0.500000
v -0.375000 -0.311880 0.441603
v -0.356250 -0.311880 0.441603
v -0.356250 -0.291791 -0.441603
v 0.356250 0.311880 -0.441603
v 0.356250 -0.311880 -0.441603
v 0.356250 0.311880 0.441603
v 0.356250 -0.311880 0.441603
vt 0.932203 0.524475
vt 0.955221 0.585263
vt 0.896840 0.602099
vt 0.861554 0.596456
vt 0.911939 0.674155
vt 0.969159 0.670415
vt 0.970159 0.699552
vt 0.886898 0.699552
vt 0.932203 0.978951
vt 0.861554 0.906970
vt 0.896840 0.901327
vt 0.955221 0.918163
vt 0.911939 0.829271
vt 0.886898 0.803874
vt 0.970159 0.803874
vt 0.969159 0.833011
vt 0.662629 0.291571
vt 0.653288 0.187987
vt 0.649030 0.115366
vt 0.662629 0.019002
vt 0.630474 0.656425
vt 0.392183 0.659346
vt 0.392861 0.415509
vt 0.631257 0.419436
vt 0.353316 0.374046
vt 0.672463 0.378087
vt 0.349670 0.489257
vt 0.672463 0.698070
vt 0.780449 0.699552
vt 0.780449 0.803875
vt 0.686422 0.699552
vt 0.686423 0.803875
vt 0.021369 0.655787
vt 0.005685 0.678156
vt 0.012118 0.358974
vt 0.030286 0.386294
vt 0.325917 0.671143
vt 0.307091 0.644356
vt 0.635294 0.192963
vt 0.589712 0.232772
vt 0.624325 0.108633
vt 0.588561 0.088206
vt 0.352435 0.700845
vt 0.533641 0.118461
vt 0.541433 0.001409
vt 0.540440 0.217425
vt 0.553790 0.322952
vt 0.356613 0.357964
vt 0.345465 0.229961
vt 0.344783 0.124349
vt 0.345531 0.000229
vt 0.309672 0.373328
vt 0.325917 0.347670
vt 0.155109 0.358598
vt 0.309180 0.033169
vt 0.309996 0.319623
vt 0.300259 0.312034
vt 0.301812 0.042713
vt 0.039428 0.313859
vt 0.006583 0.331662
vt 0.001459 -0.004693
vt 0.029788 0.016618
vt 0.335790 0.017822
vt 0.335790 0.336660
vt 0.331879 0.197067
vt 0.040097 0.024597
vt 0.046683 0.304021
vt 0.039613 0.393072
vt 0.028820 0.645776
vt 0.302451 0.383190
vt 0.297484 0.637428
vt 0.674805 0.331380
vt 0.674805 0.015854
vt 0.990332 0.015854
vt 0.990332 0.331380
vt 0.005872 0.689888
vt 0.310112 0.689888
vt 0.310112 0.994128
vt 0.005872 0.994128
vt 0.348689 0.585248
vn 0.8813 0.1780 0.4377
vn 0.6648 0.0000 -0.7470
vn 0.7135 0.7006 0.0000
vn 1.0000 0.0000 0.0000
vn -0.8813 0.1780 0.4377
vn -0.6648 -0.0000 -0.7470
vn -0.7135 0.7006 0.0000
vn -1.0000 -0.0000 -0.0000
vn -0.0000 1.0000 -0.0000
vn 0.0000 0.0000 1.0000
vn -0.5407 -0.0000 0.8412
vn -0.0000 0.5407 0.8412
vn 0.0000 -0.5407 0.8412
vn 0.0000 0.0000 -1.0000
vn -0.0000 0.5732 0.8194
vn 0.5407 0.0000 0.8412
vn 0.0000 -1.0000 -0.0000
vn 0.0000 0.9997 0.0227
usemtl Material.016
s 1
f 1/1/1 2/2/1 3/3/1 4/4/1
f 5/5/2 6/6/2 7/7/2 8/8/2
f 3/3/3 5/5/3 8/8/3 4/4/3
f 6/6/4 5/5/4 3/3/4 2/2/4
f 9/9/5 10/10/5 11/11/5 12/12/5
f 13/13/6 14/14/6 15/15/6 16/16/6
f 11/11/7 10/10/7 14/14/7 13/13/7
f 16/16/8 12/12/8 11/11/8 13/13/8
f 17/17/9 15/18/9 7/19/9 18/20/9
f 19/21/10 20/22/10 21/23/10 22/24/10
f 22/24/11 21/23/11 23/25/11 24/26/11
f 21/23/12 25/27/12 23/25/12
f 19/21/13 22/24/13 24/26/13 26/28/13
f 7/7/14 15/15/14 14/14/14 8/8/14
f 4/29/9 8/8/9 14/14/9 10/30/9
f 1/31/15 4/29/15 10/30/15 9/32/15
f 27/33/4 28/34/4 18/35/4 29/36/4
f 26/37/4 28/34/4 27/33/4 30/38/4
f 16/39/9 15/18/9 17/17/9 12/40/9
f 6/41/9 2/42/9 18/20/9 7/19/9
f 19/21/16 26/28/16 31/43/16 20/22/16
f 1/44/9 32/45/9 18/20/9 2/42/9
f 9/46/9 12/40/9 17/17/9 33/47/9
f 23/48/9 25/49/9 9/46/9 33/47/9
f 9/46/9 25/49/9 34/50/9 1/44/9
f 31/51/9 32/45/9 1/44/9 34/50/9
f 35/52/4 31/53/4 26/37/4 30/38/4
f 31/53/4 35/52/4 32/54/4
f 36/55/17 37/56/17 38/57/17 39/58/17
f 40/59/8 41/60/8 24/61/8 42/62/8
f 24/61/8 23/63/8 36/55/8 42/62/8
f 17/64/8 41/60/8 40/59/8 37/56/8
f 33/65/8 36/55/8 23/63/8
f 43/66/8 39/58/8 38/57/8 44/67/8
f 40/59/18 42/62/18 43/66/18 44/67/18
f 42/62/14 36/55/14 39/58/14 43/66/14
f 37/56/10 40/59/10 44/67/10 38/57/10
f 27/33/10 29/36/10 45/68/10 46/69/10
f 46/69/4 45/68/4 47/70/4 48/71/4
f 35/52/14 30/38/14 48/71/14 47/70/14
f 30/38/9 27/33/9 46/69/9 48/71/9
f 29/36/17 35/52/17 47/70/17 45/68/17
f 28/72/14 41/73/14 17/74/14 18/75/14
f 28/76/17 26/77/17 24/78/17 41/79/17
f 25/27/12 21/23/12 20/22/12 34/80/12
f 34/80/12 20/22/12 31/43/12
f 18/35/4 32/54/4 29/36/4
f 35/52/4 29/36/4 32/54/4
f 36/55/8 33/65/8 37/56/8
f 33/65/8 17/64/8 37/56/8
