# Blender v2.80 (sub 75) OBJ File: 'Training Map New.blend'
# www.blender.org
mtllib Training Map New.mtl
o Cube_Cube.001
v -37.906815 -2.500000 40.000000
v -37.906815 42.500000 40.000000
v -37.906815 -2.500000 -40.000000
v -37.906815 42.500000 -40.000000
v 2.093190 -2.500000 40.000000
v 2.093190 42.500000 40.000000
v 2.093190 -2.500000 -40.000000
v 2.093190 42.500000 -40.000000
vt 0.531245 0.749956
vt 0.250044 0.250044
vt 0.531244 0.250044
vt 0.531245 0.999912
vt 0.250044 0.749956
vt 0.250044 0.000089
vt 0.531244 0.000088
vt 0.781200 0.749956
vt 0.000088 0.250044
vt 0.000089 0.749956
vt 0.250044 0.999912
vt 0.781200 0.250044
vn 1.0000 0.0000 0.0000
vn 0.0000 0.0000 1.0000
vn 0.0000 0.0000 -1.0000
vn 0.0000 1.0000 0.0000
vn 0.0000 -1.0000 0.0000
usemtl Material.001
s off
f 3/1/1 2/2/1 1/3/1
f 7/4/2 4/5/2 3/1/2
f 1/3/3 6/6/3 5/7/3
f 1/3/4 7/8/4 3/1/4
f 6/9/5 4/5/5 8/10/5
f 3/1/1 4/5/1 2/2/1
f 7/4/2 8/11/2 4/5/2
f 1/3/3 2/2/3 6/6/3
f 1/3/4 5/12/4 7/8/4
f 6/9/5 2/2/5 4/5/5
