# Blender v2.80 (sub 75) OBJ File: ''
# www.blender.org
mtllib vertical sign.mtl
o vertical_sign_Cube.003
v 0.350000 0.500000 -0.200000
v 0.350000 -0.500000 -0.200000
v 0.350000 0.500000 0.200000
v 0.350000 -0.500000 0.200000
v -0.350000 0.500000 -0.200000
v -0.350000 -0.500000 -0.200000
v -0.350000 0.500000 0.200000
v -0.350000 -0.500000 0.200000
v -0.350000 -0.500000 0.000000
v 0.000000 -0.500000 -0.200000
v 0.350000 0.000000 -0.200000
v -0.350000 0.000000 0.200000
v 0.350000 0.000000 0.200000
v -0.350000 0.000000 -0.200000
v 0.000000 0.500000 0.200000
v 0.350000 0.500000 0.000000
v 0.000000 -0.500000 0.200000
v -0.350000 0.500000 0.000000
v 0.000000 0.500000 -0.200000
v 0.350000 -0.500000 0.000000
v 0.000000 0.000000 -0.200000
v 0.350000 0.000000 0.000000
v 0.000000 -0.500000 0.000000
v -0.350000 0.000000 0.000000
v 0.000000 0.000000 0.200000
v -0.350000 -0.500000 0.100000
v -0.175000 -0.500000 -0.200000
v 0.350000 -0.250000 -0.200000
v -0.350000 0.250000 0.200000
v 0.350000 -0.250000 0.200000
v -0.350000 -0.250000 -0.200000
v -0.175000 0.500000 0.200000
v 0.350000 0.500000 0.100000
v 0.175000 -0.500000 0.200000
v -0.350000 0.500000 -0.100000
v 0.175000 0.500000 -0.200000
v 0.350000 -0.500000 -0.100000
v -0.350000 -0.500000 -0.100000
v 0.175000 -0.500000 -0.200000
v 0.350000 0.250000 -0.200000
v -0.350000 -0.250000 0.200000
v 0.350000 0.250000 0.200000
v -0.350000 0.250000 -0.200000
v 0.175000 0.500000 0.200000
v 0.350000 0.500000 -0.100000
v -0.175000 -0.500000 0.200000
v -0.350000 0.500000 0.100000
v -0.175000 0.500000 -0.200000
v 0.350000 -0.500000 0.100000
v 0.175000 0.000000 -0.200000
v -0.175000 0.000000 -0.200000
v 0.000000 -0.250000 -0.200000
v 0.000000 0.250000 -0.200000
v 0.350000 0.000000 0.100000
v 0.350000 0.000000 -0.100000
v 0.350000 -0.250000 0.000000
v 0.350000 0.250000 0.000000
v 0.000000 -0.500000 0.100000
v 0.000000 -0.500000 -0.100000
v -0.175000 -0.500000 0.000000
v 0.175000 -0.500000 0.000000
v -0.350000 0.000000 -0.100000
v -0.350000 0.000000 0.100000
v -0.350000 -0.250000 0.000000
v -0.350000 0.250000 0.000000
v -0.175000 0.000000 0.200000
v 0.175000 0.000000 0.200000
v 0.000000 -0.250000 0.200000
v 0.000000 0.250000 0.200000
v 0.071277 0.500000 0.000000
v 0.175000 0.250000 0.200000
v 0.175000 -0.250000 0.200000
v -0.175000 -0.250000 0.200000
v -0.350000 0.250000 0.100000
v -0.350000 -0.250000 0.100000
v -0.350000 -0.250000 -0.100000
v 0.175000 -0.500000 -0.100000
v -0.175000 -0.500000 -0.100000
v -0.175000 -0.500000 0.100000
v 0.350000 0.250000 -0.100000
v 0.350000 -0.250000 -0.100000
v 0.350000 -0.250000 0.100000
v -0.175000 0.250000 -0.200000
v -0.175000 -0.250000 -0.200000
v 0.175000 -0.250000 -0.200000
v 0.175000 0.250000 -0.200000
v 0.350000 0.250000 0.100000
v 0.175000 -0.500000 0.100000
v -0.350000 0.250000 -0.100000
v -0.175000 0.250000 0.200000
v -0.000000 0.500000 0.071323
v 0.000000 0.500000 -0.071323
v -0.071277 0.500000 -0.000000
v -0.050401 0.500000 -0.050433
v 0.050401 0.500000 -0.050433
v 0.050401 0.500000 0.050433
v -0.050401 0.500000 0.050433
v 0.000000 0.970220 -0.071323
v -0.071277 0.970220 -0.000000
v -0.000000 0.970220 0.071323
v 0.071277 0.970220 0.000000
v -0.050401 0.970220 -0.050433
v 0.050401 0.970220 -0.050433
v 0.050401 0.970220 0.050433
v -0.050401 0.970220 0.050433
v -0.024462 1.064369 -0.071323
v -0.071277 1.009825 -0.000000
v -0.024462 1.064369 0.071323
v 0.022354 1.118913 0.000000
v -0.057565 1.025800 -0.050433
v 0.008642 1.102938 -0.050433
v 0.008642 1.102938 0.050433
v -0.057565 1.025800 0.050433
v -0.076179 1.081988 -0.071323
v -0.076391 1.009654 -0.000000
v -0.076179 1.081988 0.071323
v -0.075966 1.154322 0.000000
v -0.076329 1.030840 -0.050433
v -0.076028 1.133136 -0.050433
v -0.076028 1.133136 0.050433
v -0.076329 1.030840 0.050433
v -0.684750 1.081988 -0.071323
v -0.684750 1.081988 0.000000
v -0.684962 1.009654 -0.000000
v -0.684750 1.081988 0.071323
v -0.684537 1.154322 0.000000
v -0.684900 1.030840 -0.050433
v -0.684600 1.133136 -0.050433
v -0.684600 1.133136 0.050433
v -0.684900 1.030840 0.050433
vt 0.359788 0.404305
vt 0.413470 0.501741
vt 0.369335 0.545876
vt 0.325200 0.501741
vt 0.281065 0.545876
vt 0.325200 0.590011
vt 0.545876 0.457605
vt 0.501741 0.413470
vt 0.545876 0.369335
vt 0.590011 0.413470
vt 0.804069 0.195931
vt 0.804069 0.261198
vt 0.738802 0.261198
vt 0.738802 0.195931
vt 0.192794 0.281065
vt 0.236929 0.325200
vt 0.192794 0.369335
vt 0.148659 0.325200
vt 0.457605 0.192794
vt 0.413470 0.236929
vt 0.369335 0.192794
vt 0.413470 0.148659
vt 0.545876 0.104524
vt 0.501741 0.148659
vt 0.457605 0.104524
vt 0.501741 0.060389
vt 0.634146 0.192794
vt 0.590011 0.236930
vt 0.545876 0.192794
vt 0.590011 0.148659
vt 0.545876 0.281065
vt 0.501741 0.325200
vt 0.457605 0.281065
vt 0.501741 0.236929
vt 0.104524 0.192794
vt 0.148659 0.236929
vt 0.104524 0.281065
vt 0.060389 0.236929
vt 0.192794 0.104524
vt 0.236930 0.148659
vt 0.192794 0.192794
vt 0.148659 0.148659
vt 0.281065 0.192794
vt 0.325200 0.236929
vt 0.281065 0.281065
vt 0.236929 0.236929
vt 0.804069 0.065398
vt 0.804069 0.130665
vt 0.738802 0.130665
vt 0.738802 0.065398
vt 0.934602 0.065399
vt 0.934602 0.130665
vt 0.869335 0.130665
vt 0.869335 0.065399
vt 0.934602 0.195931
vt 0.934602 0.261198
vt 0.869335 0.261198
vt 0.869335 0.195931
vt 0.634146 0.545876
vt 0.590011 0.501741
vt 0.634146 0.457605
vt 0.678281 0.501741
vt 0.545876 0.634146
vt 0.501741 0.590011
vt 0.545876 0.545876
vt 0.590011 0.590011
vt 0.457605 0.545876
vt 0.457605 0.457605
vt 0.501741 0.501741
vt 0.192794 0.634146
vt 0.236929 0.590011
vt 0.281065 0.634146
vt 0.236929 0.678281
vt 0.104524 0.545876
vt 0.148659 0.501741
vt 0.192794 0.545876
vt 0.148659 0.590011
vt 0.192794 0.457605
vt 0.236929 0.413470
vt 0.281065 0.457605
vt 0.236929 0.501741
vt 0.334365 0.378882
vt 0.337857 0.400813
vt 0.404305 0.359788
vt 0.387311 0.387311
vt 0.400813 0.337857
vt 0.378882 0.334365
vt 0.351359 0.351359
vt 0.104524 0.457605
vt 0.148659 0.413470
vt 0.060389 0.590011
vt 0.104524 0.634146
vt 0.016254 0.545876
vt 0.060389 0.501741
vt 0.148659 0.678281
vt 0.192794 0.722416
vt 0.457605 0.634146
vt 0.413470 0.590011
vt 0.590011 0.678281
vt 0.634146 0.634146
vt 0.545876 0.722416
vt 0.501741 0.678281
vt 0.678281 0.590011
vt 0.722416 0.545876
vt 0.999868 0.130665
vt 0.999868 0.195931
vt 0.999868 0.261198
vt 0.934602 0.000132
vt 0.869335 0.000132
vt 0.999868 0.000132
vt 0.999868 0.065398
vt 0.804069 0.000132
vt 0.738802 0.000132
vt 0.281065 0.104524
vt 0.325200 0.148659
vt 0.148659 0.060389
vt 0.104524 0.104524
vt 0.192794 0.016254
vt 0.236930 0.060389
vt 0.060389 0.148659
vt 0.016254 0.192794
vt 0.634146 0.281065
vt 0.590011 0.325200
vt 0.678281 0.148659
vt 0.634146 0.104524
vt 0.722416 0.192794
vt 0.678281 0.236930
vt 0.590011 0.060389
vt 0.545876 0.016254
vt 0.420726 0.934391
vt 0.424326 0.966682
vt 0.310425 0.979297
vt 0.305856 0.948829
vt 0.417319 0.828089
vt 0.415758 0.859387
vt 0.282155 0.859559
vt 0.286738 0.817803
vt 0.418334 0.912667
vt 0.298250 0.926346
vt 0.419291 0.805618
vt 0.295952 0.793057
vt 0.421459 0.782521
vt 0.303205 0.770632
vt 0.416468 0.890920
vt 0.288306 0.901400
vt 0.424326 0.750320
vt 0.307460 0.739916
vt 0.272911 0.981103
vt 0.238439 0.976124
vt 0.245042 0.944270
vt 0.273001 0.951242
vt 0.270408 0.768739
vt 0.242649 0.776301
vt 0.235282 0.744586
vt 0.269728 0.738802
vt 0.269594 0.788370
vt 0.249613 0.794471
vt 0.267939 0.814914
vt 0.258839 0.817017
vt 0.271785 0.931561
vt 0.269450 0.904862
vt 0.268244 0.859827
vt 0.060199 0.819762
vt 0.052225 0.806205
vt 0.251583 0.925893
vt 0.053700 0.919433
vt 0.061306 0.905666
vt 0.260245 0.903018
vt 0.054731 0.891043
vt 0.265734 0.859868
vt 0.013238 0.863369
vt 0.054022 0.834556
vt 0.000132 0.823537
vt 0.007362 0.781441
vt 0.009540 0.945381
vt 0.001190 0.903507
vn 0.0000 1.0000 0.0000
vn 0.0000 0.0000 1.0000
vn -1.0000 0.0000 0.0000
vn 0.0000 -1.0000 0.0000
vn 1.0000 0.0000 0.0000
vn 0.0000 0.0000 -1.0000
vn 0.9240 0.0000 0.3825
vn -0.9240 0.0000 -0.3825
vn 0.3829 0.0000 0.9238
vn -0.3829 0.0000 -0.9238
vn 0.3829 0.0000 -0.9238
vn -0.9240 0.0000 0.3825
vn -0.3829 0.0000 0.9238
vn 0.9240 -0.0000 -0.3825
vn 0.3141 0.8761 0.3657
vn 0.3141 0.8761 -0.3657
vn 0.1324 0.3777 -0.9164
vn -0.1226 -0.3813 -0.9163
vn -0.4132 -0.0873 -0.9064
vn 0.4007 0.1169 -0.9087
vn 0.8912 0.2872 -0.3511
vn 0.8912 0.2872 0.3511
vn 0.4007 0.1169 0.9087
vn -0.4132 -0.0873 0.9064
vn -0.9401 -0.0708 0.3336
vn -0.9401 -0.0708 -0.3336
vn 0.0000 0.3781 -0.9258
vn 0.0000 0.3781 0.9258
vn 0.0000 -0.3781 0.9258
vn 0.0000 -0.9220 -0.3873
vn 0.1324 0.3777 0.9164
vn -0.1226 -0.3813 0.9163
vn -0.1863 -0.9134 0.3620
vn -0.1863 -0.9134 -0.3620
vn -1.0000 0.0029 0.0000
vn 0.0000 -0.3781 -0.9258
vn 0.0000 -0.9220 0.3873
vn 0.0000 0.9220 0.3873
vn 0.0000 0.9220 -0.3873
usemtl Material.004
s off
f 97/1/1 47/2/1 7/3/1 32/4/1
f 90/5/2 32/4/2 7/3/2 29/6/2
f 89/7/3 35/8/3 5/9/3 43/10/3
f 88/11/4 49/12/4 4/13/4 34/14/4
f 87/15/5 33/16/5 3/17/5 42/18/5
f 86/19/6 36/20/6 1/21/6 40/22/6
f 85/23/6 50/24/6 11/25/6 28/26/6
f 84/27/6 51/28/6 21/29/6 52/30/6
f 83/31/6 48/32/6 19/33/6 53/34/6
f 82/35/5 54/36/5 13/37/5 30/38/5
f 81/39/5 55/40/5 22/41/5 56/42/5
f 80/43/5 45/44/5 16/45/5 57/46/5
f 79/47/4 58/48/4 17/49/4 46/50/4
f 78/51/4 59/52/4 23/53/4 60/54/4
f 77/55/4 37/56/4 20/57/4 61/58/4
f 76/59/3 62/60/3 14/61/3 31/62/3
f 75/63/3 63/64/3 24/65/3 64/66/3
f 74/67/3 47/2/3 18/68/3 65/69/3
f 73/70/2 66/71/2 12/72/2 41/73/2
f 72/74/2 67/75/2 25/76/2 68/77/2
f 71/78/2 44/79/2 15/80/2 69/81/2
f 96/82/1 91/83/1 15/80/1 44/79/1
f 94/84/1 35/8/1 18/68/1 93/85/1
f 19/33/1 48/32/1 94/84/1 92/86/1
f 48/32/1 5/9/1 35/8/1 94/84/1
f 45/44/1 95/87/1 70/88/1 16/45/1
f 1/21/1 36/20/1 95/87/1 45/44/1
f 36/20/1 19/33/1 92/86/1 95/87/1
f 33/16/1 96/82/1 44/79/1 3/17/1
f 16/45/1 70/88/1 96/82/1 33/16/1
f 67/75/2 71/78/2 69/81/2 25/76/2
f 13/89/2 42/90/2 71/78/2 67/75/2
f 42/90/2 3/17/2 44/79/2 71/78/2
f 34/91/2 72/74/2 68/77/2 17/92/2
f 4/93/2 30/94/2 72/74/2 34/91/2
f 30/94/2 13/89/2 67/75/2 72/74/2
f 46/95/2 73/70/2 41/73/2 8/96/2
f 17/92/2 68/77/2 73/70/2 46/95/2
f 68/77/2 25/76/2 66/71/2 73/70/2
f 63/64/3 74/67/3 65/69/3 24/65/3
f 12/97/3 29/98/3 74/67/3 63/64/3
f 29/98/3 7/3/3 47/2/3 74/67/3
f 26/99/3 75/63/3 64/66/3 9/100/3
f 8/101/3 41/102/3 75/63/3 26/99/3
f 41/102/3 12/97/3 63/64/3 75/63/3
f 38/103/3 76/59/3 31/62/3 6/104/3
f 9/100/3 64/66/3 76/59/3 38/103/3
f 64/66/3 24/65/3 62/60/3 76/59/3
f 59/52/4 77/55/4 61/58/4 23/53/4
f 10/105/4 39/106/4 77/55/4 59/52/4
f 39/106/4 2/107/4 37/56/4 77/55/4
f 38/108/4 78/51/4 60/54/4 9/109/4
f 6/110/4 27/111/4 78/51/4 38/108/4
f 27/111/4 10/105/4 59/52/4 78/51/4
f 26/112/4 79/47/4 46/50/4 8/113/4
f 9/109/4 60/54/4 79/47/4 26/112/4
f 60/54/4 23/53/4 58/48/4 79/47/4
f 55/40/5 80/43/5 57/46/5 22/41/5
f 11/114/5 40/115/5 80/43/5 55/40/5
f 40/115/5 1/21/5 45/44/5 80/43/5
f 37/116/5 81/39/5 56/42/5 20/117/5
f 2/118/5 28/119/5 81/39/5 37/116/5
f 28/119/5 11/114/5 55/40/5 81/39/5
f 49/120/5 82/35/5 30/38/5 4/121/5
f 20/117/5 56/42/5 82/35/5 49/120/5
f 56/42/5 22/41/5 54/36/5 82/35/5
f 51/28/6 83/31/6 53/34/6 21/29/6
f 14/122/6 43/123/6 83/31/6 51/28/6
f 43/123/6 5/9/6 48/32/6 83/31/6
f 27/124/6 84/27/6 52/30/6 10/125/6
f 6/126/6 31/127/6 84/27/6 27/124/6
f 31/127/6 14/122/6 51/28/6 84/27/6
f 39/128/6 85/23/6 28/26/6 2/129/6
f 10/125/6 52/30/6 85/23/6 39/128/6
f 52/30/6 21/29/6 50/24/6 85/23/6
f 50/24/6 86/19/6 40/22/6 11/25/6
f 21/29/6 53/34/6 86/19/6 50/24/6
f 53/34/6 19/33/6 36/20/6 86/19/6
f 54/36/5 87/15/5 42/18/5 13/37/5
f 22/41/5 57/46/5 87/15/5 54/36/5
f 57/46/5 16/45/5 33/16/5 87/15/5
f 58/48/4 88/11/4 34/14/4 17/49/4
f 23/53/4 61/58/4 88/11/4 58/48/4
f 61/58/4 20/57/4 49/12/4 88/11/4
f 62/60/3 89/7/3 43/10/3 14/61/3
f 24/65/3 65/69/3 89/7/3 62/60/3
f 65/69/3 18/68/3 35/8/3 89/7/3
f 66/71/2 90/5/2 29/6/2 12/72/2
f 25/76/2 69/81/2 90/5/2 66/71/2
f 69/81/2 15/80/2 32/4/2 90/5/2
f 91/83/1 97/1/1 32/4/1 15/80/1
f 93/85/1 18/68/1 47/2/1 97/1/1
f 96/130/7 70/131/7 101/132/7 104/133/7
f 94/134/8 93/135/8 99/136/8 102/137/8
f 91/138/9 96/130/9 104/133/9 100/139/9
f 92/140/10 94/134/10 102/137/10 98/141/10
f 95/142/11 92/140/11 98/141/11 103/143/11
f 93/135/12 97/144/12 105/145/12 99/136/12
f 97/144/13 91/138/13 100/139/13 105/145/13
f 70/146/14 95/142/14 103/143/14 101/147/14
f 109/148/15 117/149/15 120/150/15 112/151/15
f 111/152/16 119/153/16 117/154/16 109/155/16
f 106/156/17 114/157/17 119/153/17 111/152/17
f 110/158/18 118/159/18 114/157/18 106/156/18
f 102/137/19 110/158/19 106/156/19 98/141/19
f 98/141/20 106/156/20 111/152/20 103/143/20
f 103/143/21 111/152/21 109/155/21 101/147/21
f 101/132/22 109/148/22 112/151/22 104/133/22
f 104/133/23 112/151/23 108/160/23 100/139/23
f 100/139/24 108/160/24 113/161/24 105/145/24
f 105/145/25 113/161/25 107/162/25 99/136/25
f 99/136/26 107/162/26 110/158/26 102/137/26
f 119/153/27 114/157/27 122/163/27 128/164/27
f 116/165/28 120/150/28 129/166/28 125/167/28
f 121/168/29 116/165/29 125/167/29 130/169/29
f 118/159/30 115/170/30 124/171/30 127/172/30
f 112/151/31 120/150/31 116/165/31 108/160/31
f 108/160/32 116/165/32 121/168/32 113/161/32
f 113/161/33 121/168/33 115/170/33 107/162/33
f 107/162/34 115/170/34 118/159/34 110/158/34
f 128/164/35 122/163/35 123/173/35 126/174/35
f 122/163/35 127/172/35 124/171/35 123/173/35
f 126/175/35 123/176/35 125/167/35 129/166/35
f 123/176/35 124/171/35 130/169/35 125/167/35
f 114/157/36 118/159/36 127/172/36 122/163/36
f 115/170/37 121/168/37 130/169/37 124/171/37
f 120/150/38 117/149/38 126/175/38 129/166/38
f 117/154/39 119/153/39 128/164/39 126/174/39
